<svg width="32" height="32" viewBox="0 0 32 32" fill="none" xmlns="http://www.w3.org/2000/svg">
<rect width="32" height="32" rx="9" fill="#3A80F3"/>
<path d="M14.6 16H17.4M14.6 13.3333H17.4M17.4 22V20C17.4 19.6464 17.2525 19.3072 16.9899 19.0572C16.7274 18.8071 16.3713 18.6667 16 18.6667C15.6287 18.6667 15.2726 18.8071 15.0101 19.0572C14.7475 19.3072 14.6 19.6464 14.6 20V22M11.8 14.6667H10.4C10.0287 14.6667 9.6726 14.8071 9.41005 15.0572C9.1475 15.3072 9 15.6464 9 16V20.6667C9 21.0203 9.1475 21.3594 9.41005 21.6095C9.6726 21.8595 10.0287 22 10.4 22H21.6C21.9713 22 22.3274 21.8595 22.5899 21.6095C22.8525 21.3594 23 21.0203 23 20.6667V14C23 13.6464 22.8525 13.3072 22.5899 13.0572C22.3274 12.8071 21.9713 12.6667 21.6 12.6667H20.2M11.8 22V11.3333C11.8 10.9797 11.9475 10.6406 12.2101 10.3905C12.4726 10.1405 12.8287 10 13.2 10H18.8C19.1713 10 19.5274 10.1405 19.7899 10.3905C20.0525 10.6406 20.2 10.9797 20.2 11.3333V22" stroke="white" stroke-width="1.5" stroke-linecap="round" stroke-linejoin="round"/>
</svg>
